<?xml version="1.0" encoding="UTF-8" standalone="no"?>
<svg width="352px" height="60px" viewBox="0 0 352 60" version="1.1" xmlns="http://www.w3.org/2000/svg" xmlns:xlink="http://www.w3.org/1999/xlink" xmlns:sketch="http://www.bohemiancoding.com/sketch/ns">
    <!-- Generator: Sketch 3.3.2 (12043) - http://www.bohemiancoding.com/sketch -->
    <title>custora</title>
    <desc>Created with Sketch.</desc>
    <defs></defs>
    <g id="Page-1" stroke="none" stroke-width="1" fill="none" fill-rule="evenodd" sketch:type="MSPage">
        <g id="Logo" sketch:type="MSArtboardGroup" transform="translate(-223.000000, -122.000000)" fill="#FFFFFF">
            <g id="custora" sketch:type="MSLayerGroup" transform="translate(223.000000, 122.000000)">
                <path d="M53.905,10.67 L53.905,36.358 C53.905,54.058 59.236,59.455 76.723,59.455 C96.096,59.455 99.364,52.303 99.364,36.277 L99.364,10.67 L88.435,10.67 L88.435,36.545 C88.435,43.23 88.435,50.147 76.816,50.147 C65.104,50.147 65.104,43.28 65.104,36.642 L65.104,10.67 L53.905,10.67" id="Fill-1" sketch:type="MSShapeGroup"></path>
                <path d="M110.283,54.159 C116.13,57.69 123.81,59.555 132.563,59.555 C149.093,59.555 154.955,55.614 154.955,44.503 C154.955,33.391 147.25,31.782 133.635,29.896 C127.577,29.065 124.153,28.39 124.153,24.187 C124.153,19.997 127.792,19.179 134.082,19.179 C138.671,19.179 143.854,20.287 147.816,22.094 L153.147,13.426 C148.161,10.973 141.113,9.581 133.635,9.581 C119.072,9.581 112.86,13.922 112.86,24.1 C112.86,35.427 119.569,37.578 133.813,39.516 C140.271,40.349 143.924,41.031 143.924,45.312 C143.924,50.468 139.777,50.855 133.456,50.855 C127.694,50.855 121.054,49.019 115.929,46.031 L110.283,54.159" id="Fill-2" sketch:type="MSShapeGroup"></path>
                <path d="M162.677,20.037 L171.011,20.037 L171.011,44.311 C171.011,55.379 174.974,58.928 187.324,58.928 C189.326,58.928 192.238,58.928 194.321,58.837 L194.321,49.686 L190.19,49.686 C182.9,49.686 182.31,46.323 182.31,42.257 L182.31,20.037 L194.321,20.037 L194.321,10.704 L182.31,10.704 L182.31,0.761 L170.979,5.033 L170.939,10.704 L162.677,10.704 L162.677,20.037" id="Fill-3" sketch:type="MSShapeGroup"></path>
                <path d="M267.889,58.39 L279.074,58.39 L279.074,33.921 C279.074,24.055 283.971,19.787 294.6,19.368 L294.6,8.412 C288.028,8.905 281.895,11.096 279.965,13.991 L278.433,16.679 L276.644,8.978 L267.889,9.624 L267.889,58.39" id="Fill-4" sketch:type="MSShapeGroup"></path>
                <path d="M351.558,49.21 C347.526,49.21 347.371,48.675 347.371,44.508 L347.371,28.415 C347.371,14.914 344.467,8.887 327.24,8.887 C317.667,8.887 309.77,12.565 306.92,14.509 L306.639,14.709 L312.244,23.072 L312.526,22.901 C315.001,21.416 320.07,18.923 326.212,18.923 C335.158,18.923 336.842,21.197 337.06,26.604 L335.031,26.604 C310.815,26.604 303.436,30.788 303.436,44.508 C303.436,54.878 308.903,59.501 321.163,59.501 C330.117,59.501 335.759,57.795 338.844,54.141 C340.3,57.999 342.94,58.728 347.443,58.728 C349.61,58.728 350.91,58.728 351.639,58.551 L351.91,58.481 L351.91,49.21 L351.558,49.21 L351.558,49.21 Z M337.069,37.661 C337.069,46.473 332.828,50.237 322.881,50.237 C315.119,50.237 313.565,47.752 313.565,43.739 C313.565,38.161 315.738,35.53 335.631,35.53 L337.069,35.53 L337.069,37.661 L337.069,37.661 Z" id="Fill-5" sketch:type="MSShapeGroup"></path>
                <path d="M250.54,19.106 L242.827,26.819 C244.13,29.021 244.93,31.558 244.93,34.297 C244.93,42.451 238.298,49.073 230.154,49.073 C222,49.073 215.372,42.451 215.372,34.297 C215.372,26.144 222,19.515 230.154,19.515 C233.295,19.515 236.196,20.516 238.594,22.195 L246.221,14.567 C241.836,10.99 236.244,8.837 230.154,8.837 C216.112,8.837 204.692,20.255 204.692,34.297 C204.692,48.336 216.112,59.761 230.154,59.761 C244.196,59.761 255.617,48.336 255.617,34.297 C255.617,28.599 253.713,23.351 250.54,19.106" id="Fill-6" sketch:type="MSShapeGroup"></path>
                <path d="M35.508,45.09 C32.785,47.752 29.196,49.222 25.402,49.222 C17.41,49.222 10.914,42.725 10.914,34.733 C10.914,26.745 17.41,20.247 25.402,20.247 C28.661,20.247 31.814,21.398 34.373,23.434 L41.872,15.935 L41.63,15.728 C37.098,11.853 31.335,9.723 25.402,9.723 C11.602,9.723 0.383,20.942 0.383,34.733 C0.383,48.539 11.602,59.761 25.402,59.761 C31.952,59.761 38.155,57.226 42.872,52.628 L43.391,52.125 L36.029,44.585 L35.508,45.09" id="Fill-7" sketch:type="MSShapeGroup"></path>
            </g>
        </g>
    </g>
</svg>