<?xml version="1.0" encoding="UTF-8" standalone="no"?>
<svg width="939px" height="72px" viewBox="0 0 939 72" version="1.1" xmlns="http://www.w3.org/2000/svg" xmlns:xlink="http://www.w3.org/1999/xlink" xmlns:sketch="http://www.bohemiancoding.com/sketch/ns">
    <!-- Generator: Sketch 3.3.2 (12043) - http://www.bohemiancoding.com/sketch -->
    <title>Nav</title>
    <desc>Created with Sketch.</desc>
    <defs></defs>
    <g id="Page-1" stroke="none" stroke-width="1" fill="none" fill-rule="evenodd" sketch:type="MSPage">
        <g id="SegmentBuilderDark" sketch:type="MSArtboardGroup" transform="translate(-250.000000, -38.000000)">
            <g id="StepNav" sketch:type="MSLayerGroup">
                <g id="Nav" transform="translate(252.000000, 40.000000)" sketch:type="MSShapeGroup">
                    <g id="1" transform="translate(0.000000, 10.000000)">
                        <ellipse id="Oval-1" stroke="#FFFFFF" stroke-width="3" cx="23.7174417" cy="23.5374442" rx="23.7174417" ry="23.5374442"></ellipse>
                        <path d="M23.1388682,33.7030707 L25.4245273,33.7030707 L25.4245273,15.8749291 L19.8186475,15.8749291 L19.8186475,18.1124692 L23.1388682,18.1124692 L23.1388682,33.7030707 Z" fill="#FFFFFF"></path>
                    </g>
                    <g id="2" transform="translate(148.000000, 10.000000)">
                        <ellipse id="Oval-1-Copy" stroke="#FFFFFF" stroke-width="3" cx="23.7174417" cy="23.5374442" rx="23.7174417" ry="23.5374442"></ellipse>
                        <path d="M17.8095039,33.7030707 L30.0798848,33.7030707 L30.0798848,31.6339477 L21.0575459,31.6339477 L25.7251025,27.1588676 C28.6363105,24.3679575 29.8152295,22.828145 29.8152295,20.1334731 C29.8152295,16.9094907 27.8904639,15.5862143 24.0890518,15.5862143 C21.2981416,15.5862143 19.5899121,16.0674057 18.02604,16.9094907 L19.0606016,18.8342563 C20.1673418,18.232767 21.9718096,17.7515756 23.8965752,17.7515756 C26.5431279,17.7515756 27.4814512,18.5455414 27.4814512,20.3500092 C27.4814512,22.3710131 26.4709492,23.4536938 23.7762773,26.0280678 L17.8095039,31.7542456 L17.8095039,33.7030707 Z" fill="#FFFFFF"></path>
                    </g>
                    <g id="3" transform="translate(286.000000, 0.000000)">
                        <ellipse id="Oval-1-Copy-2" stroke="#FFFFFF" stroke-width="3" fill-opacity="0.2" fill="#FFFFFF" cx="33.7174417" cy="33.5374442" rx="23.7174417" ry="23.5374442"></ellipse>
                        <circle id="Oval-36" stroke="#FFFFFF" stroke-width="3" cx="34" cy="34" r="34"></circle>
                        <path d="M34.0890518,43.3234642 C38.0348213,43.3234642 40.3926592,42.1204857 40.3926592,37.9341204 C40.3926592,35.0950911 39.6227529,33.6755765 37.6979873,33.2184447 C39.117502,32.7853724 39.8874082,31.5342747 39.8874082,29.1283177 C39.8874082,26.0005736 37.9626426,24.9178929 34.1371709,24.9178929 C31.8755713,24.9178929 29.541793,25.4231439 27.8095039,26.481765 L29.0606016,28.2862327 C30.4079375,27.4922669 32.3086436,27.0351351 33.9446943,27.0351351 C36.6153066,27.0351351 37.601749,27.6606839 37.601749,29.5373304 C37.601749,31.5823939 36.6153066,32.3282406 33.5597412,32.3282406 L30.9613076,32.3282406 L30.9613076,34.4214232 L33.6078604,34.4214232 C37.2889746,34.4214232 38.107,35.5041038 38.107,37.7657035 C38.107,40.4363158 36.8799619,41.2302816 33.9928135,41.2302816 C32.0199287,41.2302816 30.4319971,40.7490902 28.531291,39.7145286 L27.3523721,41.5911751 C29.4696143,42.8182132 31.3943799,43.3234642 34.0890518,43.3234642 L34.0890518,43.3234642 Z" fill="#FFFFFF"></path>
                    </g>
                    <g id="4" transform="translate(444.000000, 10.000000)">
                        <ellipse id="Oval-1-Copy-3" stroke="#FFFFFF" stroke-width="3" cx="23.7174417" cy="23.5374442" rx="23.7174417" ry="23.5374442"></ellipse>
                        <path d="M16.74275,27.800265 L25.6688506,27.800265 L25.6688506,32.0347493 L27.8582715,32.0347493 L27.8582715,27.800265 L31.0581943,27.800265 L31.0581943,25.7792611 L27.8582715,25.7792611 L27.8582715,20.125262 L26.1741016,20.125262 L25.6929102,25.7792611 L19.3411836,25.7792611 L27.2327227,14.2066077 L24.6824082,14.2066077 L16.74275,25.8995589 L16.74275,27.800265 Z" fill="#FFFFFF"></path>
                    </g>
                    <g id="5" transform="translate(592.000000, 10.000000)">
                        <ellipse id="Oval-1-Copy-6" stroke="#FFFFFF" stroke-width="3" cx="24.0889236" cy="23.913375" rx="23.7174417" ry="23.5374442"></ellipse>
                        <path d="M24.9469001,33.6831673 C28.8926696,33.6831673 31.779818,32.6486058 31.779818,27.6201556 C31.779818,22.7120032 29.0851462,21.6293226 25.6686872,21.6293226 C23.7679811,21.6293226 22.3003473,21.9902161 21.4823219,22.3992288 L21.7469772,17.7076126 L30.4565417,17.7076126 L30.4565417,15.5903704 L19.629735,15.5903704 L19.1726032,23.9390413 L21.145488,24.5405306 C22.3003473,23.9871605 23.383028,23.7225052 25.1153171,23.7225052 C27.6175124,23.7225052 29.4219801,24.4924114 29.4219801,27.6923343 C29.4219801,30.9644359 27.4009762,31.6140443 24.8987809,31.6140443 C22.70936,31.6140443 21.1695475,30.8681976 19.7259733,30.0742318 L18.5229948,31.9508782 C20.1109264,32.8892015 22.0597516,33.6831673 24.9469001,33.6831673 L24.9469001,33.6831673 Z" fill="#FFFFFF"></path>
                    </g>
                    <g id="6" transform="translate(740.000000, 10.000000)">
                        <ellipse id="Oval-1-Copy-4" stroke="#FFFFFF" stroke-width="3" cx="23.7174417" cy="23.5374442" rx="23.7174417" ry="23.5374442"></ellipse>
                        <path d="M23.4418125,32.2994046 C28.4221436,32.2994046 30.0581943,29.9415667 30.0581943,26.0679759 C30.0581943,22.3146829 28.6867988,20.0290238 24.13954,20.0290238 C21.4448682,20.0290238 19.5922812,20.5342747 18.6780176,21.6891341 C19.0148516,18.7538665 20.0494131,16.3238499 26.5695566,16.3238499 L27.6281777,16.3238499 L27.6281777,14.2066077 L26.6417354,14.2066077 C18.4133623,14.2066077 16.2961201,17.214054 16.2961201,24.6725208 C16.2961201,30.0618646 18.5817793,32.2994046 23.4418125,32.2994046 L23.4418125,32.2994046 Z M23.4658721,30.2543411 C20.4584258,30.2543411 18.7020771,29.1235413 18.7020771,25.7070824 C18.7020771,23.204887 20.6268428,22.0019085 23.4658721,22.0019085 C26.7860928,22.0019085 27.7484756,23.6379593 27.7484756,26.1401546 C27.7484756,28.6423499 26.8823311,30.2543411 23.4658721,30.2543411 L23.4658721,30.2543411 Z" fill="#FFFFFF"></path>
                    </g>
                    <g id="7" transform="translate(888.000000, 10.000000)">
                        <ellipse id="Oval-1-Copy-5" stroke="#FFFFFF" stroke-width="3" cx="23.7174417" cy="23.5374442" rx="23.7174417" ry="23.5374442"></ellipse>
                        <path d="M20.9172549,33.7030707 L23.3713311,33.7030707 L30.372666,17.7275161 L30.372666,15.8749291 L18.0782256,15.8749291 L18.0782256,17.9921713 L27.8223516,17.9921713 L20.9172549,33.7030707 Z" fill="#FFFFFF"></path>
                    </g>
                    <path d="M49.5,32.5 L146.5,32.5" id="Line-Copy-7" stroke="#FFFFFF" stroke-width="3" stroke-linecap="square"></path>
                    <path d="M196.5,32.5 L293.5,32.5" id="Line-Copy" stroke="#FFFFFF" stroke-width="3" stroke-linecap="square"></path>
                    <path d="M344.5,32.5 L441.5,32.5" id="Line-Copy-3" stroke="#FFFFFF" stroke-width="3" stroke-linecap="square"></path>
                    <path d="M493.5,32.5 L590.5,32.5" id="Line-Copy-2" stroke="#FFFFFF" stroke-width="3" stroke-linecap="square"></path>
                    <path d="M641.5,32.5 L738.5,32.5" id="Line-Copy-5" stroke="#FFFFFF" stroke-width="3" stroke-linecap="square"></path>
                    <path d="M789.5,32.5 L886.5,32.5" id="Line-Copy-6" stroke="#FFFFFF" stroke-width="3" stroke-linecap="square"></path>
                </g>
            </g>
        </g>
    </g>
</svg>