<?xml version="1.0" encoding="UTF-8" standalone="no"?>
<svg width="227px" height="100px" viewBox="0 0 227 100" version="1.1" xmlns="http://www.w3.org/2000/svg" xmlns:xlink="http://www.w3.org/1999/xlink" xmlns:sketch="http://www.bohemiancoding.com/sketch/ns">
    <!-- Generator: Sketch 3.3.2 (12043) - http://www.bohemiancoding.com/sketch -->
    <title>Imported Layers</title>
    <desc>Created with Sketch.</desc>
    <defs></defs>
    <g id="Page-1" stroke="none" stroke-width="1" fill="none" fill-rule="evenodd" sketch:type="MSPage">
        <g id="Imported-Layers" sketch:type="MSLayerGroup" fill="#000000">
            <path d="M216.719,61.47 C215.625,62.461 212.065,64.373 208.402,64.621 C212.293,58.118 216.554,53.157 219.02,50.57 C221.908,47.521 222.2,50.381 222.2,50.381 C222.672,55.93 218.504,59.991 216.719,61.47 M223.289,43.747 C216.865,38.976 205.932,53.182 200.971,60.161 C200.373,56.489 202.975,51.941 202.975,51.941 C202.975,51.941 207.152,45.211 207.736,43.824 C208.33,42.439 208.732,39.56 208.037,39.263 C207.444,38.961 206.359,39.855 206.359,39.855 C197.236,47.564 195.738,56.377 195.738,56.377 C194.736,61.139 195.66,64.484 197.002,66.883 C191.818,77.31 188.943,86.385 189.532,91.832 C189.926,95.995 192.883,99.064 194.658,99.76 C196.437,100.563 196.852,98.383 196.852,98.383 C198.573,87.824 201.398,79.114 204.414,72.358 C204.512,72.383 204.613,72.407 204.73,72.436 C213.941,74.766 221.169,66.031 223.746,61.775 C227.039,56.328 227.346,46.825 223.289,43.747" id="Fill-1" sketch:type="MSShapeGroup"></path>
            <path d="M94.664,19.953 C96.556,17.185 99.23,15.897 102.392,15.712 C98.287,18.44 95.32,21.913 93.764,24.208 C93.146,23.348 93.273,22.024 94.664,19.953 M99.017,27.194 C102.212,22.749 108.724,17.502 112.892,16.908 C115.27,16.626 115.99,17.579 116.117,18.61 C116.224,19.656 115.757,20.784 115.757,20.784 C111.88,28.109 103.666,28.216 99.017,27.194 M106.521,32.646 C113.661,30.482 120.717,23.766 120.922,18.222 C121.223,12.667 114.988,12.463 114.988,12.463 L114.794,12.463 C113.67,9.039 107.362,9.282 107.362,9.282 C94.182,9.953 89.508,18.956 88.915,21.329 C88.312,23.411 88.57,26.426 90.987,28.858 C90.18,30.838 90.788,31.737 90.987,32.228 C91.186,32.919 92.276,35.001 93.545,34.908 C94.445,34.81 95.106,34.193 96.332,32.243 C98.924,33.381 101.964,34.037 106.521,32.646" id="Fill-2" sketch:type="MSShapeGroup"></path>
            <path d="M191.656,66.078 C192.147,64.391 190.679,62.519 189.293,62.119 C188.004,61.808 177.995,63.379 176.799,63.671 C175.52,63.968 176.107,62.785 176.107,62.785 C176.107,62.785 177.09,59.6 177.728,57.84 C181.112,57.742 185.047,57.625 188.709,57.362 C189.993,57.271 190.086,56.269 190.086,56.269 C190.086,56.269 190.275,54.785 190.275,53.399 C190.187,51.916 189.011,52.008 189.011,52.008 C186.982,51.73 183.568,51.663 180.208,51.711 C180.889,50.097 181.457,48.657 181.685,47.84 C181.685,47.84 191.777,47.66 195.645,46.857 C197.634,46.478 196.539,44.494 196.539,44.494 C194.283,39.636 191.506,39.835 191.506,39.835 C183.583,39.324 171.993,41.09 170.705,41.673 C169.513,42.164 169.606,43.06 171.084,45.054 C171.852,46.06 172.908,46.532 173.759,46.789 C174.143,46.906 174.692,47.037 175.379,47.169 C174.809,48.161 173.875,50.038 172.951,51.974 L172.863,51.974 C170.869,52.105 170.184,52.675 170.184,52.675 C169.338,53.516 169.824,55.627 170.209,56.765 C170.296,57.022 170.402,57.217 170.539,57.377 C170.515,57.426 170.49,57.484 170.471,57.523 C170,58.73 166.785,65.14 169.162,69.317 C171.735,73.675 174.906,73.583 174.906,73.583 C180.951,74.186 191.059,68.155 191.656,66.078" id="Fill-3" sketch:type="MSShapeGroup"></path>
            <path d="M16.573,50.422 C16.573,50.422 14.686,48.345 17.556,47.057 C20.114,45.981 25.687,44.687 35.22,44.23 C34.773,50.081 34.325,56.643 34.272,62.444 C28.206,59.867 21.719,56.287 16.573,50.422 M61.093,11.378 C61.093,11.378 31.222,-5.114 6.053,2.765 C6.053,2.765 4.448,2.662 2.96,4.739 C1.477,6.714 0.193,8.095 0.888,9.69 C1.579,11.275 5.436,12.073 8.903,11.091 C8.903,11.091 10.489,10.099 8.514,9.408 C6.623,8.713 5.547,8.513 5.547,8.513 C5.547,8.513 4.55,8.304 5.63,7.817 C6.623,7.326 18.129,3.98 38.128,9.851 C58.132,15.639 84.934,32.719 83.621,49.653 C82.313,66.588 55.763,66.544 55.763,66.544 C55.763,66.544 50.306,66.651 43.084,65.037 C43.094,61.604 43.405,51.482 43.648,44.235 C53.939,44.513 64.114,46.672 64.901,49.226 C64.901,49.226 65.393,50.407 63.02,51.497 C60.84,52.387 59.148,53.087 60.914,53.973 C60.914,53.973 63.506,55.266 65.193,55.164 C66.779,55.061 71.035,53.281 71.535,48.734 C72.139,44.08 66.9,39.815 58.876,38.122 C52.738,36.823 49.465,36.371 43.92,36.405 C44.032,31.353 43.551,25.015 42.471,23.526 C41.182,21.547 39.694,18.872 38.4,21.732 C37.316,24.208 36.309,29.659 35.808,36.892 C27.278,38.006 17.779,41.317 14.803,44.79 C11.622,48.627 14.579,51.91 14.876,52.207 C15.07,52.601 21.009,61.734 34.257,68.29 C34.446,70.659 34.845,73.339 35.74,74.822 C37.71,77.998 41.581,75.921 42.072,75.43 C42.471,75.031 42.773,74.049 42.972,71.671 C48.891,73.431 59.795,75.362 71.492,72.205 C89.234,67.386 92.025,56.594 92.74,50.164 C93.431,43.628 89.103,26.581 61.093,11.378" id="Fill-4" sketch:type="MSShapeGroup"></path>
            <path d="M102.942,43.542 C102.855,41.261 102.071,40.171 101.371,39.18 C100.783,38.197 99.79,36.908 98.107,38.284 C96.517,39.666 96.099,48.585 95.7,55.817 C95.277,62.937 95.486,67.494 96.366,68.677 C97.266,69.98 100.52,70.583 102.101,69.488 C103.589,68.404 103.219,57.709 103.219,57.709 C103.219,57.709 103.049,45.823 102.942,43.542" id="Fill-5" sketch:type="MSShapeGroup"></path>
            <path d="M139.301,40.336 C137.034,37.656 124.248,37.739 124.248,37.739 C119.594,38.025 108.796,39.587 107.109,44.445 C105.514,49.085 106.793,50.778 106.793,50.778 C108.077,53.258 117.288,53.37 119.759,53.574 C122.346,53.778 128.99,54.77 131.246,56.177 C133.527,57.665 131.941,59.343 131.941,59.343 C127.978,63.496 115.1,63.86 111.827,61.774 C110.542,60.991 110.246,59.999 111.632,58.618 C113.028,57.13 117.283,59.513 116.787,59.318 C116.286,59.017 118.859,60.811 122.424,61.016 C126.092,61.205 128.669,59.931 128.868,58.648 C129.077,57.45 125.809,56.157 125.809,56.157 C115.021,52.776 110.654,55.242 110.654,55.242 C104.605,58.793 108.855,63.851 108.855,63.851 C118.148,74.376 133.221,68.257 134.991,66.773 C136.684,65.393 137.486,63.803 137.685,59.547 C137.891,55.394 136.115,53.501 136.115,53.501 C133.143,49.543 124.535,49.328 121.952,49.114 C119.579,49.013 114.628,48.122 113.441,47.812 C112.249,47.52 113.042,46.629 113.042,46.629 C114.142,45.141 136.135,44.295 136.135,44.295 C138.41,44.11 138.707,42.704 139.208,41.819 C139.598,40.93 139.301,40.336 139.301,40.336" id="Fill-6" sketch:type="MSShapeGroup"></path>
            <path d="M158.22,34.323 C158.22,34.323 156.844,33.627 156.449,35.019 C156.046,36.404 156.537,37.888 156.537,37.888 C159.693,49.881 160.263,56.919 160.263,56.919 C160.263,56.919 160.369,58.985 159.966,59.093 C159.674,59.287 159.377,58.985 159.377,58.985 C158.978,58.985 155.326,52.444 155.326,52.444 L154.636,51.155 C150.886,44.128 148.123,41.837 148.123,41.837 C147.525,41.243 146.041,39.653 144.058,41.734 C142.068,43.807 140.376,50.635 139.563,57.074 C138.873,63.514 139.154,67.186 140.035,68.761 C141.032,70.347 143.007,70.95 144.699,69.666 C146.484,68.372 146.402,59.861 146.81,55.508 C147.209,51.145 147.607,51.938 147.607,51.938 C147.992,51.841 149.884,55.902 149.884,55.902 C149.884,55.902 154.796,66.815 158.079,68.504 C161.342,70.186 164.119,67.716 165.209,65.332 C166.313,62.964 168.311,55.036 165.934,46.136 C163.57,37.197 158.22,34.323 158.22,34.323" id="Fill-7" sketch:type="MSShapeGroup"></path>
        </g>
    </g>
</svg>