<?xml version="1.0" encoding="utf-8"?>
<!-- Generator: Adobe Illustrator 16.0.4, SVG Export Plug-In . SVG Version: 6.00 Build 0)  -->
<!DOCTYPE svg PUBLIC "-//W3C//DTD SVG 1.1//EN" "http://www.w3.org/Graphics/SVG/1.1/DTD/svg11.dtd">
<svg version="1.1"
	 id="svg3399" xmlns:rdf="http://www.w3.org/1999/02/22-rdf-syntax-ns#" xmlns:cc="http://creativecommons.org/ns#" xmlns:dc="http://purl.org/dc/elements/1.1/" xmlns:inkscape="http://www.inkscape.org/namespaces/inkscape" xmlns:sodipodi="http://sodipodi.sourceforge.net/DTD/sodipodi-0.dtd" xmlns:svg="http://www.w3.org/2000/svg" inkscape:version="0.48.1 " sodipodi:docname="New document 4"
	 xmlns="http://www.w3.org/2000/svg" xmlns:xlink="http://www.w3.org/1999/xlink" x="0px" y="0px" width="388.244px"
	 height="125.008px" viewBox="0 0 388.244 125.008" enable-background="new 0 0 388.244 125.008" xml:space="preserve">
<sodipodi:namedview  inkscape:cx="217.07879" borderopacity="1.0" inkscape:zoom="1" bordercolor="#666666" pagecolor="#ffffff" id="base" inkscape:window-maximized="1" inkscape:window-y="-4" inkscape:window-x="-4" inkscape:window-height="721" inkscape:pageshadow="2" inkscape:window-width="1024" inkscape:pageopacity="0.0" fit-margin-right="0" inkscape:document-units="px" fit-margin-bottom="0" inkscape:current-layer="layer1" fit-margin-left="0" fit-margin-top="0" showgrid="false" inkscape:cy="107.28628">
	</sodipodi:namedview>
<g>
	<g>
		<g id="layer1" transform="translate(-153.80596,-512.38703)" inkscape:label="Layer 1" inkscape:groupmode="layer">
			<defs>
				<rect id="SVGID_1_" x="72.808" y="400.084" width="483.358" height="207.831"/>
			</defs>
			<clipPath id="SVGID_2_">
				<use xlink:href="#SVGID_1_"  overflow="visible"/>
			</clipPath>
			<g id="g2995" transform="matrix(1.5394809,0,0,-1.5394809,-127.24522,1346.3527)" clip-path="url(#SVGID_2_)">
				<g id="g2997">
					<g id="g3003">
						<defs>
							<rect id="SVGID_3_" x="114.433" y="438.588" width="388.369" height="125.158"/>
						</defs>
						<clipPath id="SVGID_4_">
							<use xlink:href="#SVGID_3_"  overflow="visible"/>
						</clipPath>
						<g id="g3005" clip-path="url(#SVGID_4_)">
							<path id="path3011" inkscape:connector-curvature="0" fill="#303030" d="M276.547,510.608
								c2.856-0.989,4.504-1.098,7.801-1.098c9.339,0,15.271,5.054,15.271,13.623c0,6.702-3.736,15.711-15.271,15.711h-7.801
								V510.608z M276.547,490.173c0-7.8,1.868-9.997,7.142-9.997v-1.869h-22.633v1.869c4.394,0,7.141,1.429,7.141,9.778v39.441
								c0,7.691-1.868,9.998-7.141,9.998v1.868h22.961c17.359,0,24.391-9.228,24.391-17.908c0-10.438-7.911-16.26-22.194-16.26
								c-2.747,0-5.053,0.11-9.668,0.659"/>
							<path id="path3013" inkscape:connector-curvature="0" fill="#303030" d="M331.04,503.907
								c0.331,8.569-5.492,12.085-10.437,12.085c-6.481,0-10.327-4.835-10.767-12.085H331.04L331.04,503.907z M309.836,502.039
								c-0.218-17.47,10.218-21.863,15.492-21.863c5.384,0,8.13,1.867,13.734,8.131v-2.858c-4.725-6.043-9.23-8.35-16.041-8.35
								c-12.197,0-20.985,8.46-20.985,20.215c0,11.756,8.57,20.985,19.556,20.985c9.01,0,17.36-7.251,16.81-16.26"/>
							<path id="path3015" inkscape:connector-curvature="0" fill="#303030" d="M380.59,486.768c0-5.054,1.1-6.592,6.591-6.592
								v-1.869h-20.764v1.869c5.273,0,6.701,1.208,6.701,4.834v20.326c0,6.262-4.504,8.899-8.679,8.899
								c-3.845,0-7.251-2.417-11.096-7.58v-19.008c0-5.932,0.769-7.47,6.592-7.47v-1.869h-20.546v1.869
								c5.164,0,6.484,0.44,6.484,7.47v21.864c0,4.724-1.21,5.713-6.484,5.713v1.867l12.085,1.209h1.869v-7.801
								c4.614,5.274,9.12,7.801,14.063,7.801c6.483,0,13.184-4.615,13.184-13.953"/>
							<path id="path3017" inkscape:connector-curvature="0" fill="#303030" d="M428.162,486.768c0-5.054,1.098-6.592,6.592-6.592
								v-1.869h-20.765v1.869c5.274,0,6.701,1.208,6.701,4.834v20.326c0,6.262-4.504,8.899-8.678,8.899
								c-3.846,0-7.251-2.417-11.098-7.58v-19.008c0-5.932,0.771-7.47,6.593-7.47v-1.869h-20.546v1.869
								c5.163,0,6.483,0.44,6.483,7.47v21.864c0,4.724-1.208,5.713-6.483,5.713v1.867l12.086,1.209h1.867v-7.801
								c4.616,5.274,9.12,7.801,14.063,7.801c6.483,0,13.186-4.615,13.186-13.953"/>
							<path id="path3019" inkscape:connector-curvature="0" fill="#303030" d="M263.289,467.136c0-1.744,0.474-3.079,2.331-3.079
								c1.707,0,2.605,1.147,2.605,3.141v3.465c0,0.261-0.05,0.473-0.075,0.674c-0.062,0.449-0.487,0.623-1.071,0.684v0.325h2.941
								v-0.325c-0.599-0.061-1.01-0.235-1.072-0.684c-0.025-0.2-0.075-0.412-0.075-0.674v-3.514c0-2.679-1.708-3.678-3.315-3.678
								c-2.655,0-3.478,1.347-3.478,3.602v3.715c0,1.16,0.05,1.096-1.071,1.233v0.325h3.353v-0.325
								c-1.122-0.137-1.072-0.074-1.072-1.233"/>
							<path id="path3021" inkscape:connector-curvature="0" fill="#303030" d="M277.076,463.622
								c-1.529,1.807-3.116,3.701-4.683,5.547v-4.251c0-0.2,0.038-0.364,0.057-0.518c0.048-0.348,0.376-0.482,1.01-0.529v-0.25
								h-2.357v0.25c0.462,0.047,0.78,0.181,0.827,0.529c0.02,0.154,0.058,0.317,0.058,0.518v4.531
								c-0.27,0.345-0.568,0.653-1.116,0.653v0.251h1.75c1.433-1.74,2.924-3.51,4.357-5.25h0.019v3.952
								c0,0.202-0.039,0.365-0.058,0.519c-0.048,0.348-0.375,0.481-1.01,0.529v0.251h2.357v-0.251
								c-0.452-0.048-0.78-0.181-0.828-0.529c-0.019-0.154-0.058-0.317-0.058-0.519v-5.433"/>
							<path id="path3023" inkscape:connector-curvature="0" fill="#303030" d="M282.01,464.823c0-0.894-0.038-0.846,0.827-0.952
								v-0.25h-2.587v0.25c0.866,0.106,0.827,0.058,0.827,0.952v4.328c0,0.894,0.039,0.846-0.827,0.952v0.251h2.587v-0.251
								c-0.865-0.105-0.827-0.057-0.827-0.952"/>
							<path id="path3025" inkscape:connector-curvature="0" fill="#303030" d="M286.934,470.102c-0.528,0-0.914-0.154-0.597-1.076
								c0.376-1.135,0.934-2.789,1.434-4.251c0.616,1.472,1.202,2.952,1.798,4.424c0.24,0.605-0.01,0.903-0.664,0.903v0.251h2.078
								v-0.251c-0.28,0-0.597-0.096-0.798-0.577c-0.809-1.97-1.626-3.933-2.433-5.903h-0.491c-0.586,1.662-1.241,3.519-1.827,5.154
								c-0.355,1.028-0.653,1.326-1.115,1.326v0.251h2.615"/>
							<path id="path3027" inkscape:connector-curvature="0" fill="#303030" d="M292.464,463.872
								c0.865,0.106,0.827,0.058,0.827,0.952v4.328c0,0.894,0.038,0.846-0.827,0.952v0.251h4.298v-1.55h-0.25
								c-0.096,0.713-0.289,1.242-0.981,1.242h-1.307v-2.751h0.808c0.606,0,0.865,0.24,0.884,0.837h0.25v-2.049h-0.25
								c-0.019,0.566-0.24,0.904-0.884,0.904h-0.808v-2.175c0-0.816,0.375-0.883,1.24-0.883c1.394,0,1.328,0.393,1.769,1.423h0.25
								l-0.289-1.73h-4.731"/>
							<path id="path3029" inkscape:connector-curvature="0" fill="#303030" d="M300.715,466.909h0.798
								c0.837,0,1.222,0.634,1.222,1.722c0,1.049-0.578,1.415-1.28,1.415h-0.74V466.909z M298.955,470.353h2.799
								c0.971,0,1.942-0.511,1.942-1.635c0-0.991-0.606-1.673-1.346-1.963l0.943-1.432c0.481-0.702,1.019-1.375,1.356-1.577v-0.124
								h-0.99c-0.568,0-0.875,1.048-2.039,2.981h-0.903v-1.78c0-0.894-0.039-0.846,0.827-0.952v-0.25h-2.587v0.25
								c0.865,0.106,0.827,0.058,0.827,0.952v4.328c0,0.894,0.038,0.846-0.827,0.952"/>
							<path id="path3031" inkscape:connector-curvature="0" fill="#303030" d="M309.41,468.92
								c-0.078,0.672-0.444,1.212-1.212,1.212c-0.559,0-1.058-0.289-1.058-1c0-0.674,0.673-1.078,1.635-1.799
								c1.019-0.759,1.345-1.25,1.345-2.049c0-1.143-1.172-1.777-2.327-1.777c-0.615,0-1.144,0.115-1.644,0.306
								c-0.039,0.02-0.069,0.06-0.069,0.136v1.384h0.251c0.105-1.067,0.807-1.489,1.548-1.489c0.683,0,1.24,0.519,1.24,1.22
								c0,0.625-0.336,1.135-1.779,2.087c-0.52,0.348-1.163,0.722-1.163,1.77c0,0.865,0.962,1.547,2.067,1.547
								c0.413,0,0.962-0.048,1.346-0.181c0.058-0.02,0.067-0.057,0.067-0.106v-1.26"/>
							<path id="path3033" inkscape:connector-curvature="0" fill="#303030" d="M313.612,464.823c0-0.894-0.039-0.846,0.826-0.952
								v-0.25h-2.587v0.25c0.867,0.106,0.827,0.058,0.827,0.952v4.328c0,0.894,0.039,0.846-0.827,0.952v0.251h2.587v-0.251
								c-0.865-0.105-0.826-0.057-0.826-0.952"/>
							<path id="path3035" inkscape:connector-curvature="0" fill="#303030" d="M319.19,464.823c0-0.894-0.039-0.846,0.827-0.952
								v-0.25h-2.589v0.25c0.867,0.106,0.828,0.058,0.828,0.952v5.222h-0.865c-0.837,0-1.03-0.529-1.347-1.163h-0.241l0.26,1.472
								h5.319l0.261-1.472h-0.242c-0.317,0.634-0.51,1.163-1.347,1.163h-0.865"/>
							<path id="path3037" inkscape:connector-curvature="0" fill="#303030" d="M324.44,463.872
								c0.865,0.106,0.827,0.058,0.827,0.952v1.481l-1.482,2.934c-0.317,0.625-0.586,0.864-1.028,0.864v0.251h2.45v-0.251
								c-0.729,0-0.663-0.365-0.423-0.864l1.165-2.414l1.326,2.414c0.327,0.586,0.019,0.864-0.549,0.864v0.251h1.982v-0.251
								c-0.269,0-0.528-0.124-0.789-0.586l-1.604-2.913c-0.097-0.193-0.117-0.462-0.117-0.703v-1.077
								c0-0.894-0.037-0.846,0.827-0.952v-0.25h-2.587"/>
							<path id="path3039" inkscape:connector-curvature="0" fill="#303030" d="M337.451,468.356c0,1.297-0.785,1.347-0.983,1.347
								c-1.347,0-2.232-2.418-2.232-4.04c0-0.648,0.113-1.818,1.035-1.818C336.693,463.846,337.451,466.189,337.451,468.356z
								 M333.089,465.926c0,1.633,1.408,4.076,3.49,4.076c1.659,0,2.018-1.123,2.018-2.243c0-1.371-1.096-4.288-3.477-4.288
								C333.526,463.471,333.089,464.755,333.089,465.926"/>
							<path id="path3041" inkscape:connector-curvature="0" fill="#303030" d="M344.868,469.59l-0.299-0.262h-1.633
								c-0.611-2.965-1.609-6.917-2.318-8.811h-0.561l1.783,8.811h-1.184l0.111,0.524h1.172c0.66,2.655,2.854,2.929,3.377,2.929
								c0.286,0,0.884-0.05,1.073-0.225l-0.151-0.822l-0.312-0.15c-0.174,0.336-0.573,0.723-1.096,0.723
								c-0.748,0-1.308-0.512-1.608-1.857l-0.136-0.599h1.831"/>
							<path id="path3043" inkscape:connector-curvature="0" fill="#303030" d="M352.471,465.178c0-1.158-0.05-1.097,1.071-1.234
								v-0.322h-3.353v0.322c1.122,0.137,1.073,0.076,1.073,1.234v5.609c0,1.16,0.049,1.096-1.073,1.233v0.325h3.265
								c2.069,0,3.092-0.822,3.092-2.319c0-1.794-1.62-2.766-3.528-2.653v0.249c1.559-0.024,2.281,0.908,2.281,2.28
								c0,1.397-0.672,2.045-2.069,2.045h-0.759"/>
							<path id="path3045" inkscape:connector-curvature="0" fill="#303030" d="M358.264,463.872
								c0.867,0.106,0.827,0.058,0.827,0.952v4.328c0,0.894,0.039,0.846-0.827,0.952v0.251h4.298v-1.55h-0.251
								c-0.096,0.713-0.287,1.242-0.979,1.242h-1.308v-2.751h0.808c0.606,0,0.867,0.24,0.884,0.837h0.251v-2.049h-0.251
								c-0.018,0.566-0.24,0.904-0.884,0.904h-0.808v-2.175c0-0.816,0.375-0.883,1.24-0.883c1.396,0,1.328,0.393,1.77,1.423h0.251
								l-0.29-1.73h-4.731"/>
							<path id="path3047" inkscape:connector-curvature="0" fill="#303030" d="M370.92,463.622
								c-1.529,1.807-3.115,3.701-4.683,5.547v-4.251c0-0.2,0.039-0.364,0.058-0.518c0.048-0.348,0.374-0.482,1.009-0.529v-0.25
								h-2.354v0.25c0.46,0.047,0.777,0.181,0.826,0.529c0.02,0.154,0.057,0.317,0.057,0.518v4.531
								c-0.269,0.345-0.565,0.653-1.115,0.653v0.251h1.749c1.435-1.74,2.925-3.51,4.357-5.25h0.021v3.952
								c0,0.202-0.039,0.365-0.058,0.519c-0.048,0.348-0.374,0.481-1.011,0.529v0.251h2.356v-0.251
								c-0.45-0.048-0.779-0.181-0.825-0.529c-0.02-0.154-0.059-0.317-0.059-0.519v-5.433"/>
							<path id="path3049" inkscape:connector-curvature="0" fill="#303030" d="M379.536,463.622
								c-1.528,1.807-3.115,3.701-4.683,5.547v-4.251c0-0.2,0.039-0.364,0.057-0.518c0.049-0.348,0.376-0.482,1.01-0.529v-0.25
								h-2.355v0.25c0.46,0.047,0.777,0.181,0.825,0.529c0.021,0.154,0.058,0.317,0.058,0.518v4.531
								c-0.268,0.345-0.566,0.653-1.115,0.653v0.251h1.75c1.434-1.74,2.924-3.51,4.357-5.25h0.02v3.952
								c0,0.202-0.039,0.365-0.056,0.519c-0.049,0.348-0.376,0.481-1.012,0.529v0.251h2.357v-0.251
								c-0.451-0.048-0.78-0.181-0.827-0.529c-0.02-0.154-0.059-0.317-0.059-0.519v-5.433"/>
							<path id="path3051" inkscape:connector-curvature="0" fill="#303030" d="M385.797,468.92
								c-0.075,0.672-0.441,1.212-1.211,1.212c-0.557,0-1.058-0.289-1.058-1c0-0.674,0.674-1.078,1.635-1.799
								c1.021-0.759,1.347-1.25,1.347-2.049c0-1.143-1.172-1.777-2.327-1.777c-0.617,0-1.145,0.115-1.646,0.306
								c-0.037,0.02-0.067,0.06-0.067,0.136v1.384h0.251c0.105-1.067,0.807-1.489,1.548-1.489c0.682,0,1.241,0.519,1.241,1.22
								c0,0.625-0.336,1.135-1.779,2.087c-0.52,0.348-1.163,0.722-1.163,1.77c0,0.865,0.96,1.547,2.066,1.547
								c0.414,0,0.963-0.048,1.347-0.181c0.058-0.02,0.068-0.057,0.068-0.106v-1.26"/>
							<path id="path3053" inkscape:connector-curvature="0" fill="#303030" d="M389.673,463.872
								c0.866,0.106,0.827,0.058,0.827,0.952v1.481l-1.48,2.934c-0.317,0.625-0.587,0.864-1.03,0.864v0.251h2.453v-0.251
								c-0.731,0-0.665-0.365-0.424-0.864l1.164-2.414l1.326,2.414c0.327,0.586,0.02,0.864-0.547,0.864v0.251h1.982v-0.251
								c-0.271,0-0.53-0.124-0.789-0.586l-1.607-2.913c-0.096-0.193-0.115-0.462-0.115-0.703v-1.077
								c0-0.894-0.039-0.846,0.826-0.952v-0.25h-2.587"/>
							<path id="path3055" inkscape:connector-curvature="0" fill="#303030" d="M395.519,463.872
								c0.867,0.106,0.828,0.058,0.828,0.952v4.328c0,0.894,0.039,0.846-0.828,0.952v0.251h2.589v-0.251
								c-0.867-0.105-0.827-0.057-0.827-0.952v-4.481c0-0.674,0.375-0.74,1.23-0.74c1.396,0,1.338,0.393,1.779,1.423h0.241
								l-0.289-1.73h-4.723"/>
							<path id="path3057" inkscape:connector-curvature="0" fill="#303030" d="M403.888,470.102c-0.529,0-0.915-0.154-0.598-1.076
								c0.377-1.135,0.934-2.789,1.435-4.251c0.613,1.472,1.203,2.952,1.797,4.424c0.242,0.605-0.008,0.903-0.664,0.903v0.251h2.079
								v-0.251c-0.278,0-0.598-0.096-0.798-0.577c-0.809-1.97-1.625-3.933-2.435-5.903h-0.489c-0.586,1.662-1.242,3.519-1.828,5.154
								c-0.356,1.028-0.653,1.326-1.115,1.326v0.251h2.616"/>
							<path id="path3059" inkscape:connector-curvature="0" fill="#303030" d="M411.861,466.217l-1.021,3.126h-0.018l-1.144-3.126
								H411.861z M409.532,465.851l-0.441-1.288c-0.126-0.375,0.057-0.692,0.48-0.692v-0.25h-1.749v0.25
								c0.259,0,0.538,0.164,0.691,0.481c0.414,0.846,1.538,3.991,2.336,6.115h0.54c0.653-1.933,1.634-4.895,1.961-5.75
								c0.212-0.54,0.365-0.846,0.779-0.846v-0.25h-2.241v0.25c0.607,0,0.664,0.317,0.51,0.74l-0.414,1.24"/>
							<path id="path3061" inkscape:connector-curvature="0" fill="#303030" d="M421.535,463.622
								c-1.529,1.807-3.117,3.701-4.683,5.547v-4.251c0-0.2,0.037-0.364,0.057-0.518c0.048-0.348,0.376-0.482,1.01-0.529v-0.25
								h-2.357v0.25c0.462,0.047,0.78,0.181,0.828,0.529c0.019,0.154,0.058,0.317,0.058,0.518v4.531
								c-0.269,0.345-0.568,0.653-1.115,0.653v0.251h1.75c1.432-1.74,2.924-3.51,4.357-5.25h0.018v3.952
								c0,0.202-0.037,0.365-0.057,0.519c-0.048,0.348-0.375,0.481-1.01,0.529v0.251h2.357v-0.251
								c-0.453-0.048-0.78-0.181-0.827-0.529c-0.02-0.154-0.058-0.317-0.058-0.519v-5.433"/>
							<path id="path3063" inkscape:connector-curvature="0" fill="#303030" d="M426.083,464.823c0-0.894-0.037-0.846,0.827-0.952
								v-0.25h-2.586v0.25c0.865,0.106,0.827,0.058,0.827,0.952v4.328c0,0.894,0.037,0.846-0.827,0.952v0.251h2.586v-0.251
								c-0.865-0.105-0.827-0.057-0.827-0.952"/>
							<path id="path3065" inkscape:connector-curvature="0" fill="#303030" d="M432.431,466.217l-1.018,3.126h-0.022l-1.142-3.126
								H432.431z M430.104,465.851l-0.443-1.288c-0.124-0.375,0.058-0.692,0.483-0.692v-0.25h-1.752v0.25
								c0.259,0,0.538,0.164,0.693,0.481c0.413,0.846,1.54,3.991,2.337,6.115h0.539c0.655-1.933,1.635-4.895,1.963-5.75
								c0.212-0.54,0.364-0.846,0.778-0.846v-0.25h-2.241v0.25c0.605,0,0.662,0.317,0.508,0.74l-0.411,1.24"/>
							<path id="path3067" inkscape:connector-curvature="0" fill="#FFFFFF" d="M183.07,541.244h68.993c0,0,0-33.893,0-34.49
								c-0.467-28.114-31.973-42.891-35.936-42.755c-4.122,0.141-33.15,14.601-33.063,42.902
								C183.064,507.408,183.07,541.244,183.07,541.244"/>
							<path id="path3069" inkscape:connector-curvature="0" fill="#454545" d="M183.063,520.283
								c0.1-0.099,0.004,20.955,0.004,20.955h68.942c0,0,0-11.292,0-20.956"/>
							
								<path id="path3071" inkscape:connector-curvature="0" fill="none" stroke="#454545" stroke-width="0.4793" stroke-miterlimit="3.8636" d="
								M183.063,520.283c0.1-0.099,0.004,20.955,0.004,20.955h68.942c0,0,0-11.292,0-20.956L183.063,520.283L183.063,520.283z"/>
							<path id="path3073" inkscape:connector-curvature="0" fill="#303030" d="M186.926,489.605
								c2.652-5.574,5.93-10.063,10.533-13.881l20.075,20.297l19.323-19.82c3.983,3.642,7.863,8.053,10.644,13.277l-29.991,28.852
								l-30.447-28.785"/>
							
								<path id="path3075" inkscape:connector-curvature="0" fill="none" stroke="#303030" stroke-width="0.479" stroke-miterlimit="3.8636" d="
								M186.926,489.605c2.652-5.574,5.93-10.063,10.533-13.881l20.075,20.297l19.323-19.82c3.983,3.642,7.863,8.053,10.644,13.277
								l-29.991,28.852l-30.447-28.785L186.926,489.605z"/>
							
								<path id="path3077" inkscape:connector-curvature="0" fill="none" stroke="#303030" stroke-width="0.4793" stroke-miterlimit="3.8636" d="
								M183.063,520.141l68.943,0.009"/>
							<path id="path3079" inkscape:connector-curvature="0" fill="#FFFFFF" d="M234.736,536.031h1.876
								c1.375,0.314,1.876,1.111,3.287,1.111c1.015,0,1.493-0.674,2.239-0.674c0.629,0,1.597,0.719,2.657,0.719
								c1.085,0,1.621-0.651,2.332-0.954c0.629-0.269,1.456-0.255,2.331-0.255c-0.024-0.629,0-1.003,0-1.53
								c0-0.539,0.723-0.326,0.723-1.202c0-0.921-0.933-0.741-0.933-1.111l-0.035-3.424c0.047-0.427,0.91-0.483,0.91-1.134
								c0-0.966-0.96-0.631-0.898-1.393c0.046-0.561,0-1.751,0-1.751c-1.854,0-13.773-0.109-14.357-0.087
								c0.036,1.269,0.233,1.193,0.276,1.804c0.036,0.494-1.072,0.797-1.072,1.628c0,0.573,0.664,0.539,0.722,1.078v3.413
								c-0.034,0.449-1.037,0.674-1.002,1.313c0.042,0.766,0.933,0.668,0.933,1.18C234.724,534.986,234.747,535.817,234.736,536.031
								"/>
							
								<path id="path3081" inkscape:connector-curvature="0" fill="none" stroke="#303030" stroke-width="0.4793" stroke-miterlimit="3.8636" d="
								M234.736,536.031h1.876c1.375,0.314,1.876,1.111,3.287,1.111c1.015,0,1.493-0.674,2.239-0.674
								c0.629,0,1.597,0.719,2.657,0.719c1.085,0,1.621-0.651,2.332-0.954c0.629-0.269,1.456-0.255,2.331-0.255
								c-0.024-0.629,0-1.003,0-1.53c0-0.539,0.723-0.326,0.723-1.202c0-0.921-0.933-0.741-0.933-1.111l-0.035-3.424
								c0.047-0.427,0.91-0.483,0.91-1.134c0-0.966-0.96-0.631-0.898-1.393c0.046-0.561,0-1.751,0-1.751
								c-1.854,0-13.773-0.109-14.357-0.087c0.036,1.269,0.233,1.193,0.276,1.804c0.036,0.494-1.072,0.797-1.072,1.628
								c0,0.573,0.664,0.539,0.722,1.078v3.413c-0.034,0.449-1.037,0.674-1.002,1.313c0.042,0.766,0.933,0.668,0.933,1.18
								C234.724,534.986,234.747,535.817,234.736,536.031L234.736,536.031z"/>
							
								<path id="path3083" inkscape:connector-curvature="0" fill="none" stroke="#303030" stroke-width="0.4793" stroke-miterlimit="3.8636" d="
								M236.263,535.974c0,0,0.023-7.635,0-9.431c0,0,11.12-0.022,11.609,0.023c0,2.032-0.011,9.465-0.011,9.465"/>
							
								<path id="path3085" inkscape:connector-curvature="0" fill="none" stroke="#303030" stroke-width="0.4793" stroke-miterlimit="3.8636" d="
								M242.079,536.446v-9.926"/>
							<path id="path3087" inkscape:connector-curvature="0" fill="#303030" d="M242.255,527.744
								c0.489-0.022,1.388-0.353,2.261-0.617c1.13-0.342,2.329-0.102,3.217-0.28c0.28-0.056-5.478-0.102-5.478-0.102
								C242.277,527.857,242.255,527.744,242.255,527.744"/>
							
								<path id="path3089" inkscape:connector-curvature="0" fill="none" stroke="#303030" stroke-width="0.4793" stroke-miterlimit="3.8636" d="
								M242.255,527.744c0.489-0.022,1.388-0.353,2.261-0.617c1.13-0.342,2.329-0.102,3.217-0.28
								c0.28-0.056-5.478-0.102-5.478-0.102C242.277,527.857,242.255,527.744,242.255,527.744L242.255,527.744z"/>
							<path id="path3091" inkscape:connector-curvature="0" fill="#303030" d="M241.426,526.273c0,0.248,0.29,0.449,0.647,0.449
								c0.358,0,0.647-0.201,0.647-0.449c0-0.248-0.289-0.448-0.647-0.448C241.716,525.825,241.426,526.026,241.426,526.273"/>
							
								<path id="path3093" inkscape:connector-curvature="0" fill="none" stroke="#303030" stroke-width="0.4793" stroke-miterlimit="3.8636" d="
								M241.426,526.273c0,0.248,0.29,0.449,0.647,0.449c0.358,0,0.647-0.201,0.647-0.449c0-0.248-0.289-0.448-0.647-0.448
								C241.716,525.825,241.426,526.026,241.426,526.273z"/>
							<path id="path3095" inkscape:connector-curvature="0" fill="#303030" d="M241.756,527.744
								c-0.49-0.022-1.388-0.353-2.261-0.617c-1.13-0.342-2.33-0.102-3.217-0.28c-0.28-0.056,5.478-0.102,5.478-0.102
								C241.733,527.857,241.755,527.744,241.756,527.744"/>
							
								<path id="path3097" inkscape:connector-curvature="0" fill="none" stroke="#303030" stroke-width="0.4793" stroke-miterlimit="3.8636" d="
								M241.756,527.744c-0.49-0.022-1.388-0.353-2.261-0.617c-1.13-0.342-2.33-0.102-3.217-0.28
								c-0.28-0.056,5.478-0.102,5.478-0.102C241.733,527.857,241.755,527.744,241.756,527.744L241.756,527.744z"/>
							<path id="path3099" inkscape:connector-curvature="0" fill="#FFFFFF" d="M203.551,523.434
								c0.187-0.73,0.734-1.213,1.632-1.213c1.667,0,3.276,1.235,4.242,1.931c0.758,0.539,1.539,1.111,1.539,2.291l-0.14-0.449
								c0,0,1.305,1.302,4.522,0.269c0.894-0.287,4.721-2.436,5.549-2.784c0.711-0.304,3.203-2.091,7.098-1.402
								c0,0,5.947,0.818,4.619,6.942c-0.95,4.377-0.655,4.688-0.294,6.092c-0.14,0.067-3.637,0.853-3.543-3.997
								c-1.516-0.157-3.451-1.302-2.192-4.312c0.513,0.764,1.2,1.572,2.145,1.572c0.594,0,1.22-0.854,1.259-1.482
								c0.093-1.527-1.446-2.201-3.357-1.886c-0.969,0.159-1.862,1.233-3.198,2.2c0.233,0.112,0.447,0.899,0.447,1.214
								c0,0.775-0.665,1.134-1.119,1.392c0.093,0.269,0.279,0.628,0.279,0.898c0,0.618-0.874,0.573-1.211,0.808
								c0.139,0.191,0.139,0.078,0.139,0.359c0,0.899,0.14,1.393-1.678,1.347c0.152,0.887-0.035,1.46-0.653,1.707l-1.352,0.18
								c-0.839,0.157-0.002,0.437-0.777,1.183c-0.691,0.667-1.828,0-1.828,0c0,0.618-0.426,1.108-1.172,1.108
								c-0.396,0-0.886-0.034-1.165-0.18l-0.559-0.449c-0.7,0-0.874,0.629-1.678,0.629c-0.804,0-1.13-0.629-1.446-1.033
								c-0.547,0.258-0.618,0.719-1.352,0.719c-0.431,0-0.559-0.46-0.746-0.674c-0.478-0.528-0.444-1.075-1.19-1.344l-0.277,0.488
								c-0.009,0.03-0.017,0.062-0.025,0.093c-1.096-0.528-3.568-6.164-3.568-7.32c0-1.101,0.957-0.618,0.957-1.798
								c0-0.696-1.026-1.201-1.026-1.796c0-0.752,0.874-1.122,1.632-1.122"/>
							
								<path id="path3101" inkscape:connector-curvature="0" fill="none" stroke="#303030" stroke-width="0.479" stroke-miterlimit="3.8636" d="
								M203.551,523.434c0.187-0.73,0.734-1.213,1.632-1.213c1.667,0,3.276,1.235,4.242,1.931c0.758,0.539,1.539,1.111,1.539,2.291
								l-0.14-0.449c0,0,1.305,1.302,4.522,0.269c0.894-0.287,4.721-2.436,5.549-2.784c0.711-0.304,3.203-2.091,7.098-1.402
								c0,0,5.947,0.818,4.619,6.942c-0.95,4.377-0.655,4.688-0.294,6.092c-0.14,0.067-3.637,0.853-3.543-3.997
								c-1.516-0.157-3.451-1.302-2.192-4.312c0.513,0.764,1.2,1.572,2.145,1.572c0.594,0,1.22-0.854,1.259-1.482
								c0.093-1.527-1.446-2.201-3.357-1.886c-0.969,0.159-1.862,1.233-3.198,2.2c0.233,0.112,0.447,0.899,0.447,1.214
								c0,0.775-0.665,1.134-1.119,1.392c0.093,0.269,0.279,0.628,0.279,0.898c0,0.618-0.874,0.573-1.211,0.808
								c0.139,0.191,0.139,0.078,0.139,0.359c0,0.899,0.14,1.393-1.678,1.347c0.152,0.887-0.035,1.46-0.653,1.707l-1.352,0.18
								c-0.839,0.157-0.002,0.437-0.777,1.183c-0.691,0.667-1.828,0-1.828,0c0,0.618-0.426,1.108-1.172,1.108
								c-0.396,0-0.886-0.034-1.165-0.18l-0.559-0.449c-0.7,0-0.874,0.629-1.678,0.629c-0.804,0-1.13-0.629-1.446-1.033
								c-0.547,0.258-0.618,0.719-1.352,0.719c-0.431,0-0.559-0.46-0.746-0.674c-0.478-0.528-0.444-1.075-1.19-1.344l-0.277,0.488
								c-0.009,0.03-0.017,0.062-0.025,0.093c-1.096-0.528-3.568-6.164-3.568-7.32c0-1.101,0.957-0.618,0.957-1.798
								c0-0.696-1.026-1.201-1.026-1.796c0-0.752,0.874-1.122,1.632-1.122L203.551,523.434L203.551,523.434z"/>
							<path id="path3103" inkscape:connector-curvature="0" fill="#303030" d="M206.127,528.169c0,0,1.213-0.467,1.213-0.719
								c0-0.341-0.783-0.718-1.305-1.167h-0.653c0.233,0.763,0,0.485,0,1.167C205.381,527.962,205.922,528.169,206.127,528.169"/>
							
								<path id="path3105" inkscape:connector-curvature="0" fill="none" stroke="#303030" stroke-width="0.4793" stroke-miterlimit="3.8636" d="
								M206.127,528.169c0,0,1.213-0.467,1.213-0.719c0-0.341-0.783-0.718-1.305-1.167h-0.653c0.233,0.763,0,0.485,0,1.167
								C205.381,527.962,205.922,528.169,206.127,528.169z"/>
							
								<path id="path3107" inkscape:connector-curvature="0" fill="none" stroke="#303030" stroke-width="0.4793" stroke-miterlimit="3.8636" d="
								M210.556,530.236c0.629,0.303,0.338,1.077,1.352,1.077c0.898,0,1.236-0.628,2.051-0.628c0.548,0,0.932,0.539,1.678,0.539
								c0.664,0,1.539-0.899,1.399-1.976c0,0,2.331,0.763,2.237-1.752c1.865,0.629,1.679-0.91,1.865-1.662
								c0.186-0.719,1.399-0.135,1.212-1.661"/>
							<path id="path3109" inkscape:connector-curvature="0" fill="#FFFFFF" d="M185.673,535.97h1.876
								c1.375,0.315,1.876,1.112,3.287,1.112c1.014,0,1.492-0.674,2.238-0.674c0.629,0,1.597,0.718,2.657,0.718
								c1.084,0,1.62-0.651,2.331-0.954c0.63-0.27,1.457-0.256,2.332-0.256c-0.024-0.629,0-1.002,0-1.53
								c0-0.539,0.722-0.325,0.722-1.201c0-0.921-0.932-0.741-0.932-1.111l-0.035-3.425c0.046-0.426,0.909-0.482,0.909-1.134
								c0-0.966-0.961-0.631-0.898-1.392c0.046-0.562,0-1.751,0-1.751c-1.854,0-13.522-0.011-14.104,0.011
								c0.036,1.269-0.02,1.095,0.023,1.707c0.034,0.494-1.073,0.797-1.073,1.628c0,0.573,0.665,0.539,0.723,1.077v3.414
								c-0.035,0.448-1.037,0.674-1.002,1.314c0.042,0.765,0.933,0.667,0.933,1.179C185.662,534.926,185.684,535.757,185.673,535.97
								"/>
							
								<path id="path3111" inkscape:connector-curvature="0" fill="none" stroke="#303030" stroke-width="0.4793" stroke-miterlimit="3.8636" d="
								M185.673,535.97h1.876c1.375,0.315,1.876,1.112,3.287,1.112c1.014,0,1.492-0.674,2.238-0.674
								c0.629,0,1.597,0.718,2.657,0.718c1.084,0,1.62-0.651,2.331-0.954c0.63-0.27,1.457-0.256,2.332-0.256
								c-0.024-0.629,0-1.002,0-1.53c0-0.539,0.722-0.325,0.722-1.201c0-0.921-0.932-0.741-0.932-1.111l-0.035-3.425
								c0.046-0.426,0.909-0.482,0.909-1.134c0-0.966-0.961-0.631-0.898-1.392c0.046-0.562,0-1.751,0-1.751
								c-1.854,0-13.522-0.011-14.104,0.011c0.036,1.269-0.02,1.095,0.023,1.707c0.034,0.494-1.073,0.797-1.073,1.628
								c0,0.573,0.665,0.539,0.723,1.077v3.414c-0.035,0.448-1.037,0.674-1.002,1.314c0.042,0.765,0.933,0.667,0.933,1.179
								C185.662,534.926,185.684,535.757,185.673,535.97L185.673,535.97z"/>
							
								<path id="path3113" inkscape:connector-curvature="0" fill="none" stroke="#303030" stroke-width="0.4793" stroke-miterlimit="3.8636" d="
								M187.199,535.914c0,0,0.023-7.635,0-9.431c0,0,11.121-0.023,11.61,0.023c0,2.032-0.012,9.465-0.012,9.465"/>
							
								<path id="path3115" inkscape:connector-curvature="0" fill="none" stroke="#303030" stroke-width="0.4793" stroke-miterlimit="3.8636" d="
								M193.016,536.386v-9.926"/>
							<path id="path3117" inkscape:connector-curvature="0" fill="#303030" d="M193.191,527.684
								c0.49-0.023,1.389-0.353,2.262-0.617c1.13-0.343,2.329-0.102,3.216-0.281c0.28-0.056-5.478-0.101-5.478-0.101
								C193.214,527.796,193.191,527.684,193.191,527.684"/>
							
								<path id="path3119" inkscape:connector-curvature="0" fill="none" stroke="#303030" stroke-width="0.4793" stroke-miterlimit="3.8636" d="
								M193.191,527.684c0.49-0.023,1.389-0.353,2.262-0.617c1.13-0.343,2.329-0.102,3.216-0.281
								c0.28-0.056-5.478-0.101-5.478-0.101C193.214,527.796,193.191,527.684,193.191,527.684z"/>
							<path id="path3121" inkscape:connector-curvature="0" fill="#303030" d="M192.363,526.213c0,0.248,0.289,0.449,0.647,0.449
								s0.646-0.201,0.646-0.449c0-0.248-0.289-0.449-0.646-0.449S192.363,525.965,192.363,526.213"/>
							
								<path id="path3123" inkscape:connector-curvature="0" fill="none" stroke="#303030" stroke-width="0.4793" stroke-miterlimit="3.8636" d="
								M192.363,526.213c0,0.248,0.289,0.449,0.647,0.449s0.646-0.201,0.646-0.449c0-0.248-0.289-0.449-0.646-0.449
								S192.363,525.965,192.363,526.213z"/>
							<path id="path3125" inkscape:connector-curvature="0" fill="#303030" d="M192.693,527.684
								c-0.49-0.023-1.389-0.353-2.261-0.617c-1.131-0.343-2.33-0.102-3.217-0.281c-0.28-0.056,5.478-0.101,5.478-0.101
								C192.67,527.796,192.693,527.684,192.693,527.684"/>
							
								<path id="path3127" inkscape:connector-curvature="0" fill="none" stroke="#303030" stroke-width="0.4793" stroke-miterlimit="3.8636" d="
								M192.693,527.684c-0.49-0.023-1.389-0.353-2.261-0.617c-1.131-0.343-2.33-0.102-3.217-0.281
								c-0.28-0.056,5.478-0.101,5.478-0.101C192.67,527.796,192.693,527.684,192.693,527.684L192.693,527.684z"/>
							<path id="path3129" inkscape:connector-curvature="0" fill="#FFFFFF" d="M194.917,491.902c0,3.203,2.695,5.8,6.019,5.8
								s6.019-2.598,6.019-5.8c0-3.202-2.695-5.797-6.019-5.797S194.917,488.7,194.917,491.902"/>
							
								<path id="path3131" inkscape:connector-curvature="0" fill="none" stroke="#303030" stroke-width="0.4793" stroke-miterlimit="3.8636" d="
								M194.917,491.902c0,3.203,2.695,5.8,6.019,5.8s6.019-2.598,6.019-5.8c0-3.202-2.695-5.797-6.019-5.797
								S194.917,488.7,194.917,491.902L194.917,491.902z"/>
							<path id="path3133" inkscape:connector-curvature="0" fill="#FFFFFF" d="M211.466,505.83c0,3.202,2.695,5.799,6.019,5.799
								c3.325,0,6.019-2.596,6.019-5.799c0-3.203-2.695-5.797-6.019-5.797C214.161,500.033,211.466,502.627,211.466,505.83"/>
							
								<path id="path3135" inkscape:connector-curvature="0" fill="none" stroke="#303030" stroke-width="0.479" stroke-miterlimit="3.8636" d="
								M211.466,505.83c0,3.202,2.695,5.799,6.019,5.799c3.325,0,6.019-2.596,6.019-5.799c0-3.203-2.695-5.797-6.019-5.797
								C214.161,500.033,211.466,502.627,211.466,505.83z"/>
							<path id="path3137" inkscape:connector-curvature="0" fill="#FFFFFF" d="M227.079,491.902c0,3.203,2.695,5.8,6.02,5.8
								c3.324,0,6.019-2.598,6.019-5.8c0-3.202-2.695-5.797-6.019-5.797C229.774,486.105,227.079,488.7,227.079,491.902"/>
							
								<path id="path3139" inkscape:connector-curvature="0" fill="none" stroke="#303030" stroke-width="0.4793" stroke-miterlimit="3.8636" d="
								M227.079,491.902c0,3.203,2.695,5.8,6.02,5.8c3.324,0,6.019-2.598,6.019-5.8c0-3.202-2.695-5.797-6.019-5.797
								C229.774,486.105,227.079,488.7,227.079,491.902z"/>
							
								<path id="path3141" inkscape:connector-curvature="0" fill="none" stroke="#303030" stroke-width="0.4793" stroke-miterlimit="3.8636" d="
								M223.522,527.444c-1.538,1.693-2.895,3.681-3.129,3.78c-0.757,0.315-2.564,3.907-7.413,4.177
								c-1.231,0.069-5.868-0.382-6.028-1.568"/>
							
								<path id="path3143" inkscape:connector-curvature="0" fill="none" stroke="#303030" stroke-width="0.4793" stroke-miterlimit="3.8636" d="
								M210.995,526.138c0.018,0.116,0.028,0.24,0.028,0.37c0,0.193-1.136,0.083-1.406,0.164c-0.186,0.056,0.5,0.33,0.381,0.33
								c0.699,0.27,2.491,1.058,1.865,1.662c-0.606,0.584-0.967,1.201-1.305,1.572c-0.454,0.494-0.991,0.763-1.819,0.763
								c-0.711,0-1.864-1.234-2.341-1.571c0.35,0.337,1.362,1.212,1.362,1.93c0,1.617-1.293,3.02-1.632,4.356"/>
							
								<path id="path3145" inkscape:connector-curvature="0" fill="none" stroke="#303030" stroke-width="0.4793" stroke-miterlimit="3.8636" d="
								M204.025,523.679c1.281,0,2.004,0.089,2.611,0.404c0.664,0.348,1.865,1.1,2.145,1.751"/>
							
								<path id="path3147" inkscape:connector-curvature="0" fill="none" stroke="#303030" stroke-width="0.95" stroke-miterlimit="3.8636" d="
								M183.048,541.238h68.991c0,0,0-33.893,0-34.491c-0.466-28.113-31.972-42.891-35.935-42.755
								c-4.121,0.141-33.15,14.601-33.063,42.901C183.042,507.403,183.048,541.238,183.048,541.238L183.048,541.238z"/>
						</g>
					</g>
				</g>
			</g>
		</g>
	</g>
</g>
</svg>
