<?xml version="1.0" encoding="utf-8"?>
<!-- Generator: Adobe Illustrator 16.0.4, SVG Export Plug-In . SVG Version: 6.00 Build 0)  -->
<!DOCTYPE svg PUBLIC "-//W3C//DTD SVG 1.1//EN" "http://www.w3.org/Graphics/SVG/1.1/DTD/svg11.dtd">
<svg version="1.1" id="Layer_1" xmlns="http://www.w3.org/2000/svg" xmlns:xlink="http://www.w3.org/1999/xlink" x="0px" y="0px"
	 width="360px" height="360px" viewBox="0 0 360 360" enable-background="new 0 0 360 360" xml:space="preserve">
<rect x="-1" y="-1" fill="#21242A" width="363" height="361"/>
<g>
	<rect x="56" y="143" fill="none" width="500" height="338"/>
	<path fill="#FFFFFF" d="M150.206,142.995v46.503h25.302v5.2h-25.302V213h-6.3v-18.302H61.7v-2.399l78.305-49.304H150.206z
		 M144.005,189.598v-42.902l-68.804,42.902H144.005z"/>
	<path fill="#FFFFFF" d="M196.602,205.199c-5.801-5.801-7.4-15.201-7.4-26.102c0-9.901,2.6-19.401,8.801-25.602
		c7.5-7.5,19-12.201,43.602-12.201c19.002,0,31.602,3.4,40.104,6.601v5.9c-10.9-4.5-24.303-7.3-40.104-7.3
		c-20.5,0-32.002,3.8-38.502,10.201c-4.801,4.8-7.6,11.8-7.6,21.901c0,1.9,0,3.9,0.1,5.6c0.6-1.5,1.6-3,3-4.4
		c6.5-7,18.9-10,41.602-10c24.002,0,36.402,2.9,42.404,8.801c2.898,2.9,4.799,8,4.799,13.5c0,5.501-1.6,10.001-5.199,13.602
		c-6.102,6-17.402,9.301-43.303,9.301C214.602,215,203.002,211.6,196.602,205.199z M277.406,201.999
		c2.4-2.501,3.701-5.7,3.701-9.901c0-4-1.201-7.4-3.701-9.9c-4.6-4.6-15.201-7.2-37.402-7.2c-16.5,0-32.201,1.4-38.602,7.801
		c-2.201,2.3-4.102,5.7-4.102,9.501c0,3.8,1.301,6.9,3.701,9.3c5.4,5.3,16.102,8.2,37.902,8.2S271.705,207.699,277.406,201.999z"/>
</g>
<g>
</g>
<g>
</g>
<g>
</g>
<g>
</g>
<g>
</g>
<g>
</g>
<g>
</g>
<g>
</g>
<g>
</g>
<g>
</g>
<g>
</g>
<g>
</g>
<g>
</g>
<g>
</g>
<g>
</g>
</svg>
