<?xml version="1.0" encoding="utf-8"?>
<!-- Generator: Adobe Illustrator 16.0.4, SVG Export Plug-In . SVG Version: 6.00 Build 0)  -->
<!DOCTYPE svg PUBLIC "-//W3C//DTD SVG 1.1//EN" "http://www.w3.org/Graphics/SVG/1.1/DTD/svg11.dtd">
<svg version="1.1" id="Layer_1" xmlns="http://www.w3.org/2000/svg" xmlns:xlink="http://www.w3.org/1999/xlink" x="0px" y="0px"
	 width="249.861px" height="66.205px" viewBox="0 0 249.861 66.205" enable-background="new 0 0 249.861 66.205"
	 xml:space="preserve">
<g>
	<path fill="#303030" d="M0.204,29.13l2.854-0.606V4.957L0.185,4.394V2.159h4.77c1.578,0.013,3.042-0.016,4.394-0.084
		c1.352-0.068,2.592-0.097,3.718-0.084c2.166,0.013,4.075,0.316,5.728,0.912c1.652,0.595,3.039,1.469,4.159,2.621
		c1.121,1.153,1.969,2.571,2.544,4.256c0.576,1.685,0.864,3.618,0.864,5.797c0,2.455-0.363,4.654-1.089,6.595
		c-0.726,1.942-1.734,3.583-3.023,4.923s-2.817,2.355-4.582,3.044s-3.687,1.015-5.765,0.977c-0.451-0.013-0.949-0.038-1.493-0.075
		s-1.117-0.078-1.718-0.122c-0.601-0.043-1.214-0.084-1.84-0.122s-1.239-0.056-1.84-0.056l-4.807,0.188V29.13z M6.776,28.43
		c0.388,0.113,0.819,0.207,1.295,0.282c0.476,0.075,0.967,0.138,1.474,0.188c0.507,0.05,1.017,0.088,1.53,0.113
		s1.008,0.031,1.484,0.019c1.377-0.038,2.669-0.31,3.877-0.817c1.208-0.507,2.263-1.264,3.165-2.272s1.611-2.266,2.131-3.774
		c0.519-1.509,0.779-3.277,0.779-5.305c0-1.99-0.216-3.781-0.648-5.371c-0.432-1.59-1.086-2.939-1.962-4.047
		c-0.876-1.108-1.978-1.956-3.305-2.544c-1.327-0.588-2.879-0.87-4.657-0.845c-0.939,0.012-1.825,0.034-2.657,0.065
		C8.45,4.152,7.615,4.237,6.776,4.375V28.43z"/>
	<path fill="#303030" d="M31.564,28.843c-0.839-0.901-1.471-1.975-1.897-3.221s-0.664-2.776-0.713-4.591
		c-0.038-0.926,0.041-1.862,0.235-2.808c0.194-0.945,0.491-1.853,0.892-2.723s0.898-1.687,1.493-2.451
		c0.594-0.763,1.286-1.43,2.075-2c0.789-0.569,1.665-1.026,2.629-1.371c0.964-0.344,2.015-0.535,3.155-0.573
		c1.014-0.025,1.912,0.113,2.694,0.413s1.458,0.726,2.028,1.277c0.569,0.551,1.039,1.199,1.408,1.944
		c0.369,0.745,0.648,1.546,0.836,2.403c0.188,0.858,0.288,1.756,0.3,2.695c0.012,0.939-0.05,1.866-0.188,2.779H32.54
		c0.05,1.415,0.263,2.645,0.639,3.69s0.889,1.913,1.54,2.601c0.65,0.689,1.417,1.205,2.3,1.549c0.882,0.345,1.85,0.517,2.901,0.517
		c0.463,0,0.951-0.041,1.464-0.122s0.999-0.179,1.456-0.291c0.457-0.113,0.867-0.231,1.23-0.357
		c0.363-0.125,0.632-0.238,0.808-0.338l0.544,1.371c-0.238,0.301-0.589,0.592-1.052,0.874c-0.463,0.281-1.001,0.525-1.615,0.732
		c-0.614,0.207-1.284,0.373-2.009,0.498c-0.727,0.125-1.471,0.188-2.235,0.188c-1.402,0-2.695-0.222-3.878-0.667
		C33.451,30.417,32.428,29.745,31.564,28.843z M42.756,18.496c0.05-1.039,0.028-2.006-0.066-2.901
		c-0.094-0.895-0.3-1.671-0.62-2.329s-0.77-1.173-1.352-1.549c-0.582-0.376-1.343-0.563-2.282-0.563
		c-0.876,0-1.681,0.213-2.413,0.638c-0.732,0.426-1.355,0.986-1.868,1.681c-0.514,0.695-0.908,1.481-1.183,2.357
		c-0.275,0.876-0.388,1.765-0.338,2.667H42.756z"/>
	<path fill="#303030" d="M49.685,29.125l2.929-0.394V13.689l-2.667-1.371v-1.708l4.998-1.296l0.846,0.375v2.591
		c0.326-0.288,0.758-0.601,1.297-0.939c0.539-0.338,1.138-0.654,1.795-0.948c0.658-0.294,1.341-0.541,2.049-0.742
		c0.708-0.2,1.394-0.312,2.059-0.338c1.178-0.038,2.187,0.091,3.026,0.385c0.84,0.294,1.523,0.808,2.049,1.54
		s0.912,1.706,1.156,2.92c0.245,1.214,0.367,2.723,0.367,4.526V28.73l3.211,0.394v1.784h-9.934v-1.784l3.118-0.394v-9.953
		c0-1.152-0.063-2.16-0.188-3.023c-0.125-0.864-0.357-1.577-0.695-2.141s-0.808-0.977-1.408-1.239
		c-0.601-0.263-1.377-0.369-2.329-0.319c-0.301,0.013-0.654,0.05-1.061,0.113c-0.407,0.062-0.836,0.156-1.287,0.281
		c-0.451,0.125-0.911,0.285-1.38,0.479c-0.47,0.194-0.923,0.429-1.361,0.704l-0.038,7.756L56.22,28.73l3.042,0.394v1.784h-9.577
		V29.125z"/>
	<path fill="#303030" d="M81.515,31.416c-0.876,0-1.612-0.112-2.207-0.338c-0.595-0.225-1.077-0.557-1.446-0.995
		c-0.37-0.438-0.636-0.977-0.798-1.615c-0.163-0.638-0.25-1.371-0.263-2.197l0.15-7.211l0.132-6.835h-2.535v-1.596
		c0.451-0.163,0.885-0.416,1.305-0.761c0.419-0.344,0.81-0.745,1.173-1.202s0.701-0.948,1.014-1.474s0.594-1.052,0.845-1.577h1.671
		v4.075h6.272v2.535h-6.253l-0.188,6.647c0,1.528,0.012,2.839,0.038,3.934c0.025,1.096,0.075,2.013,0.15,2.751
		c0.075,0.739,0.178,1.324,0.31,1.756c0.132,0.432,0.297,0.758,0.498,0.977c0.2,0.219,0.444,0.354,0.732,0.404
		c0.288,0.05,0.632,0.063,1.033,0.038c0.676-0.038,1.33-0.131,1.962-0.282c0.632-0.15,1.167-0.3,1.605-0.451l0.413,1.577
		c-0.338,0.263-0.732,0.507-1.183,0.732c-0.451,0.226-0.927,0.42-1.427,0.583c-0.501,0.162-1.011,0.291-1.53,0.385
		C82.469,31.369,81.978,31.416,81.515,31.416z"/>
	<path fill="#303030" d="M96.162,11.698c-0.563,0-1.133,0.06-1.709,0.178c-0.576,0.119-1.114,0.263-1.615,0.432
		c-0.501,0.169-0.945,0.338-1.333,0.507c-0.388,0.169-0.67,0.304-0.845,0.404l-0.545-1.577c0.238-0.25,0.617-0.517,1.136-0.798
		s1.12-0.544,1.803-0.789c0.682-0.244,1.415-0.444,2.197-0.601c0.782-0.156,1.555-0.234,2.319-0.234c1.064,0,2.038,0.116,2.92,0.347
		c0.882,0.232,1.637,0.607,2.263,1.127s1.114,1.199,1.465,2.037c0.35,0.839,0.525,1.872,0.525,3.099l-0.037,12.807h2.854v1.615
		c-0.188,0.1-0.451,0.207-0.789,0.319c-0.338,0.112-0.708,0.219-1.108,0.319c-0.401,0.1-0.798,0.185-1.192,0.253
		c-0.395,0.068-0.742,0.103-1.042,0.103c-0.438,0-0.789-0.078-1.051-0.234c-0.263-0.157-0.47-0.357-0.62-0.601
		c-0.15-0.244-0.251-0.52-0.301-0.826c-0.05-0.307-0.075-0.61-0.075-0.911c-0.288,0.226-0.664,0.488-1.126,0.789
		c-0.463,0.3-1.002,0.585-1.615,0.854c-0.614,0.269-1.296,0.488-2.047,0.657c-0.751,0.169-1.546,0.234-2.385,0.197
		c-0.814-0.037-1.527-0.204-2.141-0.498s-1.126-0.691-1.54-1.192c-0.414-0.5-0.723-1.099-0.93-1.793s-0.31-1.461-0.31-2.3
		c0-0.864,0.216-1.624,0.648-2.281c0.432-0.657,0.995-1.227,1.69-1.709s1.477-0.889,2.348-1.221c0.87-0.332,1.743-0.598,2.62-0.798
		c0.876-0.2,1.711-0.344,2.507-0.432c0.795-0.087,1.467-0.138,2.019-0.15v-2.385c0-0.901-0.116-1.652-0.347-2.253
		c-0.232-0.601-0.563-1.083-0.996-1.446c-0.432-0.363-0.952-0.623-1.559-0.779C97.61,11.777,96.925,11.698,96.162,11.698z
		 M93.044,24.787c0,0.488,0.059,0.964,0.178,1.427c0.119,0.463,0.291,0.874,0.517,1.23c0.225,0.357,0.507,0.645,0.845,0.864
		c0.338,0.219,0.732,0.329,1.183,0.329c0.326,0,0.729-0.031,1.211-0.094c0.482-0.062,0.977-0.147,1.483-0.253
		c0.507-0.106,0.995-0.238,1.465-0.395c0.469-0.156,0.854-0.329,1.155-0.516l0.038-6.685c-1.214,0.025-2.316,0.153-3.305,0.385
		c-0.989,0.232-1.837,0.532-2.544,0.901c-0.708,0.37-1.255,0.795-1.643,1.277C93.238,23.739,93.044,24.249,93.044,24.787z"/>
	<path fill="#303030" d="M108.48,29.125l3.192-0.394V3.117l-3.38-0.639V0.807l6.234-0.526l0.751,0.319v28.13l3.361,0.394v1.784
		H108.48V29.125z"/>
	<path fill="#303030" d="M130.001,29.125l2.892-0.582V4.713l-2.93-0.319V2.178h9.521v2.216l-2.93,0.319v10.91h14.403V4.713
		l-3.023-0.319V2.178h9.689v2.216l-3.005,0.319v23.849l3.005,0.563v1.784h-9.596v-1.784l2.93-0.563V17.839h-14.403v10.723
		l2.91,0.563v1.784h-9.464V29.125z"/>
	<path fill="#303030" d="M163.163,28.843c-0.839-0.901-1.471-1.975-1.896-3.221s-0.664-2.776-0.714-4.591
		c-0.037-0.926,0.041-1.862,0.235-2.808c0.193-0.945,0.491-1.853,0.892-2.723s0.898-1.687,1.493-2.451
		c0.595-0.763,1.286-1.43,2.075-2c0.788-0.569,1.664-1.026,2.629-1.371c0.964-0.344,2.016-0.535,3.154-0.573
		c1.015-0.025,1.912,0.113,2.695,0.413c0.782,0.3,1.458,0.726,2.027,1.277c0.57,0.551,1.039,1.199,1.409,1.944
		c0.369,0.745,0.647,1.546,0.835,2.403c0.188,0.858,0.288,1.756,0.301,2.695s-0.05,1.866-0.188,2.779H164.14
		c0.05,1.415,0.263,2.645,0.639,3.69s0.889,1.913,1.54,2.601c0.65,0.689,1.418,1.205,2.3,1.549c0.883,0.345,1.85,0.517,2.901,0.517
		c0.463,0,0.951-0.041,1.465-0.122s0.998-0.179,1.455-0.291c0.457-0.113,0.867-0.231,1.23-0.357
		c0.363-0.125,0.632-0.238,0.808-0.338l0.544,1.371c-0.237,0.301-0.588,0.592-1.051,0.874c-0.464,0.281-1.002,0.525-1.615,0.732
		s-1.283,0.373-2.01,0.498c-0.726,0.125-1.471,0.188-2.234,0.188c-1.402,0-2.694-0.222-3.878-0.667
		C165.051,30.417,164.027,29.745,163.163,28.843z M174.355,18.496c0.05-1.039,0.028-2.006-0.065-2.901
		c-0.095-0.895-0.301-1.671-0.62-2.329s-0.77-1.173-1.353-1.549c-0.582-0.376-1.342-0.563-2.281-0.563
		c-0.876,0-1.681,0.213-2.413,0.638c-0.732,0.426-1.355,0.986-1.868,1.681c-0.514,0.695-0.908,1.481-1.184,2.357
		c-0.275,0.876-0.388,1.765-0.338,2.667H174.355z"/>
	<path fill="#303030" d="M187.895,11.698c-0.563,0-1.133,0.06-1.709,0.178c-0.576,0.119-1.114,0.263-1.615,0.432
		c-0.5,0.169-0.945,0.338-1.333,0.507c-0.388,0.169-0.67,0.304-0.845,0.404l-0.545-1.577c0.238-0.25,0.616-0.517,1.137-0.798
		c0.519-0.282,1.12-0.544,1.803-0.789c0.682-0.244,1.414-0.444,2.196-0.601c0.782-0.156,1.556-0.234,2.319-0.234
		c1.064,0,2.038,0.116,2.92,0.347c0.883,0.232,1.637,0.607,2.263,1.127s1.114,1.199,1.465,2.037
		c0.351,0.839,0.526,1.872,0.526,3.099l-0.038,12.807h2.854v1.615c-0.188,0.1-0.45,0.207-0.789,0.319
		c-0.338,0.112-0.707,0.219-1.107,0.319c-0.4,0.1-0.798,0.185-1.192,0.253c-0.395,0.068-0.742,0.103-1.042,0.103
		c-0.438,0-0.789-0.078-1.052-0.234c-0.263-0.157-0.47-0.357-0.62-0.601s-0.25-0.52-0.3-0.826c-0.051-0.307-0.075-0.61-0.075-0.911
		c-0.288,0.226-0.664,0.488-1.127,0.789c-0.463,0.3-1.002,0.585-1.615,0.854s-1.296,0.488-2.047,0.657
		c-0.751,0.169-1.546,0.234-2.385,0.197c-0.813-0.037-1.527-0.204-2.141-0.498s-1.127-0.691-1.54-1.192
		c-0.413-0.5-0.723-1.099-0.93-1.793c-0.206-0.695-0.31-1.461-0.31-2.3c0-0.864,0.216-1.624,0.648-2.281
		c0.432-0.657,0.995-1.227,1.689-1.709c0.695-0.482,1.478-0.889,2.348-1.221c0.87-0.332,1.743-0.598,2.619-0.798
		s1.712-0.344,2.507-0.432c0.795-0.087,1.468-0.138,2.02-0.15v-2.385c0-0.901-0.116-1.652-0.348-2.253
		c-0.232-0.601-0.563-1.083-0.995-1.446c-0.433-0.363-0.952-0.623-1.559-0.779C189.344,11.777,188.658,11.698,187.895,11.698z
		 M184.777,24.787c0,0.488,0.06,0.964,0.179,1.427c0.118,0.463,0.291,0.874,0.516,1.23c0.226,0.357,0.508,0.645,0.846,0.864
		c0.338,0.219,0.732,0.329,1.183,0.329c0.325,0,0.729-0.031,1.211-0.094c0.482-0.062,0.977-0.147,1.484-0.253
		c0.507-0.106,0.995-0.238,1.464-0.395c0.47-0.156,0.854-0.329,1.155-0.516l0.038-6.685c-1.215,0.025-2.316,0.153-3.306,0.385
		c-0.989,0.232-1.837,0.532-2.544,0.901c-0.708,0.37-1.256,0.795-1.644,1.277C184.972,23.739,184.777,24.249,184.777,24.787z"/>
	<path fill="#303030" d="M200.213,29.125l3.192-0.394V3.117l-3.38-0.639V0.807l6.234-0.526l0.751,0.319v28.13l3.361,0.394v1.784
		h-10.159V29.125z"/>
	<path fill="#303030" d="M218.71,31.416c-0.876,0-1.611-0.112-2.206-0.338c-0.595-0.225-1.077-0.557-1.446-0.995
		c-0.369-0.438-0.635-0.977-0.798-1.615c-0.163-0.638-0.251-1.371-0.263-2.197l0.15-7.211l0.131-6.835h-2.535v-1.596
		c0.451-0.163,0.886-0.416,1.306-0.761c0.419-0.344,0.811-0.745,1.174-1.202c0.362-0.457,0.7-0.948,1.014-1.474
		c0.312-0.526,0.595-1.052,0.845-1.577h1.672v4.075h6.271v2.535h-6.253l-0.188,6.647c0,1.528,0.012,2.839,0.037,3.934
		c0.025,1.096,0.075,2.013,0.15,2.751c0.075,0.739,0.179,1.324,0.31,1.756c0.132,0.432,0.298,0.758,0.498,0.977
		c0.2,0.219,0.444,0.354,0.732,0.404c0.287,0.05,0.632,0.063,1.032,0.038c0.677-0.038,1.33-0.131,1.963-0.282
		c0.632-0.15,1.167-0.3,1.605-0.451l0.413,1.577c-0.338,0.263-0.732,0.507-1.184,0.732c-0.45,0.226-0.926,0.42-1.427,0.583
		c-0.501,0.162-1.011,0.291-1.53,0.385S219.173,31.416,218.71,31.416z"/>
	<path fill="#303030" d="M226.259,29.125l2.873-0.394V3.117l-3.567-0.639V0.807l6.422-0.526l0.751,0.319v11.68
		c0.351-0.3,0.779-0.623,1.287-0.967c0.507-0.344,1.066-0.664,1.681-0.958c0.613-0.294,1.264-0.541,1.952-0.742
		c0.688-0.2,1.384-0.3,2.085-0.3c1.339,0,2.441,0.188,3.305,0.563c0.864,0.375,1.546,0.964,2.047,1.765s0.842,1.828,1.023,3.08
		s0.266,2.748,0.254,4.488v9.521l3.248,0.394v1.784h-10.103v-1.784l3.249-0.394v-7.925c0-1.452-0.038-2.726-0.113-3.821
		c-0.074-1.095-0.26-2.006-0.554-2.732c-0.294-0.726-0.738-1.27-1.333-1.633s-1.412-0.545-2.45-0.545
		c-0.313,0-0.698,0.041-1.155,0.122c-0.457,0.082-0.942,0.201-1.455,0.357c-0.514,0.157-1.03,0.351-1.55,0.582
		c-0.52,0.232-0.992,0.498-1.418,0.798V28.73l3.117,0.394v1.784h-9.596V29.125z"/>
	<path fill="#303030" d="M23.591,49.343h2.128v16.819h-2.128V49.343z"/>
	<path fill="#303030" d="M32.897,49.343h2.205l6.077,10.563l1.82,3.487h0.103c-0.051-0.854-0.107-1.739-0.167-2.654
		c-0.06-0.914-0.09-1.815-0.09-2.705v-8.691h2.025v16.819h-2.205l-6.102-10.589l-1.82-3.461h-0.103
		c0.068,0.854,0.132,1.722,0.192,2.602c0.06,0.881,0.09,1.766,0.09,2.654v8.794h-2.025V49.343z"/>
	<path fill="#303030" d="M55.536,51.138h-5.077v-1.795h12.307v1.795H57.69v15.024h-2.154V51.138z"/>
	<path fill="#303030" d="M68.355,49.343h9.691v1.795h-7.563v5.281h6.384v1.82h-6.384v6.103h7.82v1.82h-9.948V49.343z"/>
	<path fill="#303030" d="M93.661,66.162l-4.051-7.102h-3.051v7.102h-2.128V49.343h5.256c0.854,0,1.645,0.082,2.372,0.244
		c0.726,0.162,1.35,0.432,1.872,0.808s0.927,0.863,1.218,1.461c0.291,0.599,0.436,1.333,0.436,2.205
		c0,1.316-0.342,2.367-1.025,3.153c-0.684,0.787-1.599,1.325-2.744,1.615l4.256,7.333H93.661z M86.559,57.316h2.82
		c1.316,0,2.324-0.269,3.025-0.808c0.701-0.538,1.051-1.354,1.051-2.448c0-1.111-0.351-1.889-1.051-2.333
		c-0.701-0.444-1.709-0.667-3.025-0.667h-2.82V57.316z"/>
	<path fill="#303030" d="M101.891,49.343h2.205l6.077,10.563l1.82,3.487h0.103c-0.051-0.854-0.107-1.739-0.167-2.654
		c-0.06-0.914-0.09-1.815-0.09-2.705v-8.691h2.025v16.819h-2.205l-6.102-10.589l-1.82-3.461h-0.103
		c0.068,0.854,0.132,1.722,0.192,2.602c0.06,0.881,0.09,1.766,0.09,2.654v8.794h-2.025V49.343z"/>
	<path fill="#303030" d="M128.734,61.034h-6.127l-1.615,5.128h-2.179l5.691-16.819h2.41l5.692,16.819h-2.282L128.734,61.034z
		 M128.196,59.316l-0.795-2.563c-0.308-0.94-0.599-1.876-0.871-2.808c-0.274-0.932-0.548-1.885-0.821-2.858h-0.103
		c-0.256,0.974-0.521,1.927-0.795,2.858s-0.564,1.867-0.872,2.808l-0.795,2.563H128.196z"/>
	<path fill="#303030" d="M140.015,51.138h-5.076v-1.795h12.307v1.795h-5.076v15.024h-2.154V51.138z"/>
	<path fill="#303030" d="M152.835,49.343h2.128v16.819h-2.128V49.343z"/>
	<path fill="#303030" d="M168.346,66.47c-1.06,0-2.029-0.205-2.909-0.615c-0.881-0.41-1.638-0.995-2.27-1.756
		c-0.633-0.761-1.124-1.684-1.475-2.77c-0.351-1.085-0.525-2.303-0.525-3.653s0.175-2.56,0.525-3.628s0.842-1.975,1.475-2.718
		c0.632-0.743,1.389-1.312,2.27-1.705c0.88-0.393,1.85-0.59,2.909-0.59s2.03,0.201,2.91,0.603c0.881,0.402,1.642,0.975,2.282,1.718
		c0.641,0.744,1.137,1.649,1.487,2.718c0.35,1.068,0.525,2.27,0.525,3.603c0,1.351-0.176,2.568-0.525,3.653
		c-0.351,1.086-0.847,2.009-1.487,2.77s-1.401,1.346-2.282,1.756C170.376,66.265,169.405,66.47,168.346,66.47z M168.346,64.598
		c0.752,0,1.432-0.162,2.039-0.486c0.606-0.325,1.128-0.791,1.563-1.397s0.773-1.333,1.013-2.18
		c0.239-0.846,0.359-1.799,0.359-2.858c0-1.043-0.12-1.982-0.359-2.82c-0.239-0.837-0.577-1.547-1.013-2.128
		s-0.957-1.029-1.563-1.347c-0.607-0.315-1.287-0.474-2.039-0.474s-1.432,0.158-2.038,0.474c-0.606,0.317-1.128,0.766-1.563,1.347
		c-0.437,0.581-0.773,1.291-1.013,2.128c-0.24,0.838-0.359,1.777-0.359,2.82c0,1.06,0.119,2.013,0.359,2.858
		c0.239,0.847,0.576,1.573,1.013,2.18c0.436,0.606,0.957,1.072,1.563,1.397C166.914,64.436,167.594,64.598,168.346,64.598z"/>
	<path fill="#303030" d="M181.729,49.343h2.205l6.076,10.563l1.82,3.487h0.103c-0.051-0.854-0.106-1.739-0.167-2.654
		c-0.06-0.914-0.089-1.815-0.089-2.705v-8.691h2.025v16.819h-2.205l-6.103-10.589l-1.82-3.461h-0.103
		c0.068,0.854,0.133,1.722,0.192,2.602c0.06,0.881,0.09,1.766,0.09,2.654v8.794h-2.025V49.343z"/>
	<path fill="#303030" d="M208.572,61.034h-6.128l-1.615,5.128h-2.179l5.691-16.819h2.41l5.692,16.819h-2.282L208.572,61.034z
		 M208.034,59.316l-0.795-2.563c-0.308-0.94-0.599-1.876-0.872-2.808s-0.547-1.885-0.82-2.858h-0.103
		c-0.256,0.974-0.521,1.927-0.795,2.858s-0.563,1.867-0.871,2.808l-0.795,2.563H208.034z"/>
	<path fill="#303030" d="M217.393,49.343h2.128v14.999h7.358v1.82h-9.486V49.343z"/>
</g>
<g>
</g>
<g>
</g>
<g>
</g>
<g>
</g>
<g>
</g>
<g>
</g>
<g>
</g>
<g>
</g>
<g>
</g>
<g>
</g>
<g>
</g>
<g>
</g>
<g>
</g>
<g>
</g>
<g>
</g>
</svg>
